<svg width="278" height="278" viewBox="0 0 278 278" fill="none" xmlns="http://www.w3.org/2000/svg">
<circle cx="139" cy="139" r="138.5" fill="#FED6CF" stroke="#FF937C"/>
<path d="M106.187 141.459C106.187 142.729 106.412 143.801 106.807 144.704C110.645 142.785 114.286 140.273 117.658 137.296V132.231C113.213 136.661 108.853 139.681 106.187 141.346V141.459V141.459Z" fill="black"/>
<path d="M100.557 147.272C100.148 146.256 99.8795 145.141 99.7666 143.928C99.174 145.297 98.5672 146.651 97.9746 148.02C98.666 147.836 99.5408 147.597 100.557 147.272Z" fill="black"/>
<path d="M90.5387 126.093C93.3889 126.841 96.4366 127.391 99.696 127.984V127.292H106.201V129.282H106.215C106.215 129.296 106.201 129.296 106.201 129.31V138.143C108.36 133.853 110.518 129.564 112.691 125.26C109.7 125.035 105.509 124.583 100.585 123.525C97.8335 122.932 90.4117 121.352 85.3885 118.826C76.8944 114.579 67.6382 103.799 67.4971 90.6629C67.3137 73.8862 81.9457 58.4358 97.8758 57.829C107.344 57.4763 115.499 60.2842 121.637 65.3497C136.452 77.5971 133.461 98.762 132.897 102.939C131.528 112.999 127.126 121.084 122.117 127.292H124.205V130.481C134.364 118.121 140.262 101.231 137.624 85.033C134.66 66.8594 120.282 53.7795 101.982 53.0317C84.0763 52.2979 67.9345 64.3902 64.0402 81.435C60.3857 97.4075 66.2696 112.618 79.2084 121.07C81.9598 121.183 84.4996 121.86 86.7995 123.158C88.2246 123.948 89.4522 124.95 90.5387 126.093Z" fill="black"/>
<path d="M167.819 121.804V125.641C171.403 126.714 175.269 127.377 179.516 128.167H184.765V129.225C184.85 129.239 184.934 129.254 185.019 129.282C184.934 129.479 184.85 129.663 184.765 129.86V138.623C187.008 134.178 189.252 129.719 191.481 125.275C189.478 125.134 186.91 124.865 183.947 124.4C183.269 124.88 182.479 125.119 181.562 125.119C180.419 125.119 179.46 124.753 178.712 124.033C178.472 123.807 178.288 123.539 178.119 123.285C174.775 122.551 168.567 121.07 164.179 118.855C155.713 114.593 146.456 103.827 146.315 90.677C146.118 73.8862 160.75 58.4358 176.694 57.829C186.162 57.4763 194.317 60.2842 200.455 65.3497C215.271 77.5971 212.279 98.762 211.715 102.939C210.064 115.144 203.926 124.442 197.676 130.989V131.878C198.508 130.707 199.665 129.719 201.132 128.929C202.318 128.294 203.644 127.927 205.111 127.8C213.973 115.736 218.897 100.088 216.442 85.033C213.465 66.8594 199.087 53.7795 180.8 53.0317C162.895 52.2979 146.753 64.3902 142.844 81.435C138.893 98.6915 146.075 115.073 161.258 122.975V121.804H167.819V121.804Z" fill="black"/>
<path d="M184.765 145.127C186.966 144.083 189.111 142.827 191.171 141.416V136.958C188.617 139.004 186.359 140.499 184.765 141.487V145.127Z" fill="black"/>
<path d="M176.779 148.02C177.202 147.907 177.71 147.766 178.26 147.611V144.648C177.766 145.776 177.273 146.891 176.779 148.02Z" fill="black"/>
<path d="M210.572 187.951C210.755 204.714 196.123 220.178 180.179 220.771C170.711 221.123 162.556 218.316 156.418 213.25C141.603 201.003 144.594 179.838 145.158 175.661C146.993 162.116 154.358 152.14 161.258 145.536V140.57C146.753 152.888 137.214 173.756 140.446 193.567C143.409 211.74 157.787 224.82 176.087 225.568C193.993 226.302 210.135 214.224 214.029 197.165C217.796 180.713 211.433 165.079 197.676 156.796V162.976C204.434 168.338 210.459 177.369 210.572 187.951Z" fill="black"/>
<path d="M178.26 131.116C177.047 131.483 175.622 131.963 174.013 132.64C173.858 132.696 173.717 132.781 173.576 132.838V133.515H172.052C170.613 134.206 169.202 134.982 167.805 135.829V140.048C170.881 137.776 173.279 136.421 174.154 135.942C172.193 139.85 170.232 143.744 168.256 147.653C168.313 147.723 168.355 147.794 168.426 147.865C168.849 148.26 169.54 148.443 170.542 148.443H172.249C174.253 143.9 176.242 139.342 178.246 134.799V131.116H178.26Z" fill="black"/>
<path d="M184.765 153.89H178.26V150.602C176.75 150.32 175.184 150.023 173.576 149.685V153.89H170.655C172.715 154.158 175.015 154.539 177.512 155.075C179.996 155.611 186.289 156.951 191.185 159.068V153.678C189.139 152.93 187.022 152.352 184.779 151.872V153.89H184.765Z" fill="black"/>
<path d="M165.872 153.396C165.716 153.353 165.603 153.269 165.462 153.212C165.434 153.255 165.42 153.311 165.392 153.353C165.547 153.367 165.716 153.382 165.872 153.396Z" fill="black"/>
<path d="M79.7022 148.344C82.5383 145.268 85.4168 142.771 87.9425 140.838C88.1823 139.836 88.3093 138.764 88.3093 137.607C88.3093 137.155 88.2811 136.732 88.2388 136.309C83.4414 139.356 79.025 143.335 75.2012 147.949C76.203 148.26 77.2612 148.429 78.4182 148.429C78.8698 148.415 79.2931 148.387 79.7022 148.344Z" fill="black"/>
<path d="M113.425 154.059C112.705 153.763 111.986 153.509 111.238 153.255C110.829 153.297 110.42 153.325 109.996 153.325C107.979 153.325 106.201 152.902 104.663 152.055C104.296 151.858 103.957 151.632 103.633 151.378C100.359 150.743 96.8599 150.165 93.0643 149.318C95.2796 144.281 97.4948 139.243 99.7101 134.22V131.031C98.4543 131.398 96.9305 131.906 95.2231 132.626C94.9551 132.739 94.687 132.866 94.433 132.979C94.7011 133.995 94.8563 135.067 94.9409 136.167C95.1103 136.069 95.2655 135.984 95.3784 135.928C95.2373 136.196 95.1103 136.464 94.9692 136.732C94.9833 137.028 95.0256 137.296 95.0256 137.593C95.0256 140.471 94.4189 143.095 93.1913 145.466C91.9637 147.836 90.2988 149.755 88.1964 151.251L90.3834 153.706C92.7962 153.988 95.6041 154.412 98.7083 155.075C101.46 155.667 108.882 157.248 113.905 159.773C122.371 164.035 131.627 174.8 131.768 187.951C131.951 204.714 117.319 220.178 101.375 220.771C91.9073 221.123 83.7518 218.316 77.6139 213.25C62.7985 201.003 65.7898 179.838 66.3542 175.661C67.5394 166.941 71.0105 159.703 75.1729 153.89C73.9171 153.664 72.7037 153.297 71.5467 152.789C63.5745 164.557 59.3133 179.33 61.6274 193.567C64.5905 211.74 78.9685 224.82 97.2691 225.568C115.175 226.302 131.316 214.224 135.211 197.165C139.444 178.695 130.921 161.199 113.425 154.059Z" fill="black"/>
<path d="M78.4182 154.228C79.8433 154.228 81.2401 154.059 82.5947 153.72L87.5191 159.618H95.6041L90.3552 153.72L88.1681 151.265C90.2705 149.784 91.9355 147.851 93.163 145.48C94.3906 143.11 94.9973 140.485 94.9973 137.607C94.9973 137.31 94.955 137.028 94.9409 136.746C94.9268 136.563 94.9268 136.365 94.9127 136.182C94.828 135.081 94.6869 134.009 94.4047 132.993C94.0379 131.61 93.5017 130.312 92.7821 129.084C92.133 127.97 91.3711 126.996 90.5245 126.093C89.438 124.95 88.2105 123.962 86.7995 123.158C84.4995 121.86 81.9597 121.183 79.2083 121.07C78.9402 121.056 78.6862 121.028 78.4182 121.028C75.3845 121.028 72.5907 121.733 70.0651 123.158C67.5253 124.583 65.5075 126.559 64.026 129.084C62.5445 131.61 61.7966 134.446 61.7966 137.607C61.7966 140.796 62.5445 143.646 64.026 146.171C65.5075 148.697 67.5253 150.673 70.0651 152.098C70.5448 152.366 71.0528 152.591 71.5466 152.817C72.7036 153.325 73.9171 153.678 75.1729 153.918C76.2311 154.087 77.3035 154.228 78.4182 154.228ZM73.2398 147.089C71.7441 146.214 70.573 144.944 69.7405 143.307C68.908 141.67 68.4847 139.766 68.4847 137.593C68.4847 135.434 68.908 133.529 69.7405 131.906C70.573 130.284 71.7441 129.028 73.2398 128.167C74.7355 127.306 76.471 126.869 78.4182 126.869C80.3653 126.869 82.0867 127.306 83.5683 128.167C85.0498 129.028 86.221 130.284 87.0534 131.906C87.7166 133.19 88.1117 134.672 88.2387 136.294C88.281 136.718 88.3092 137.141 88.3092 137.593C88.3092 138.75 88.1822 139.822 87.9424 140.824C87.7307 141.699 87.4485 142.531 87.0534 143.307C86.221 144.944 85.0498 146.214 83.5683 147.089C82.4254 147.766 81.1273 148.189 79.7022 148.33C79.2789 148.373 78.8556 148.401 78.4182 148.401C77.2611 148.401 76.2029 148.232 75.2011 147.921C74.5238 147.724 73.8606 147.455 73.2398 147.089Z" stroke="black" stroke-miterlimit="10"/>
<path d="M122.117 127.292H117.658V132.231V137.296V141.459C117.658 143.505 117.15 145.071 116.12 146.171C115.104 147.272 113.693 147.822 111.901 147.822C110.137 147.822 108.74 147.272 107.725 146.171C107.344 145.762 107.047 145.254 106.807 144.704C106.412 143.801 106.187 142.729 106.187 141.459V141.332V138.129V129.296V129.268V127.278H99.6819V127.97V131.031V134.22V142.376C99.6819 142.912 99.7101 143.42 99.7524 143.928C99.8653 145.141 100.133 146.256 100.543 147.272C100.684 147.625 100.825 147.977 100.994 148.302C101.671 149.572 102.546 150.602 103.604 151.392C103.929 151.632 104.268 151.858 104.634 152.069C106.187 152.916 107.964 153.339 109.968 153.339C110.391 153.339 110.815 153.311 111.21 153.269C112.324 153.142 113.369 152.86 114.356 152.394C115.697 151.759 116.797 150.884 117.63 149.769V153.015H124.177V130.481V127.292H122.117Z" stroke="black" stroke-miterlimit="10"/>
<path d="M130.738 134.065C129.581 136.083 129.002 138.397 129.002 141.035C129.002 143.674 129.567 145.988 130.696 148.006C131.824 150.023 133.376 151.576 135.366 152.676C137.341 153.777 139.571 154.327 142.054 154.327C144.566 154.327 146.823 153.777 148.855 152.676C150.887 151.576 152.495 150.023 153.681 148.006C154.866 145.988 155.473 143.674 155.473 141.035C155.473 138.411 154.894 136.083 153.737 134.065C152.58 132.047 150.986 130.495 148.982 129.395C146.964 128.294 144.721 127.744 142.252 127.744C139.768 127.744 137.525 128.294 135.521 129.395C133.489 130.495 131.895 132.061 130.738 134.065ZM137.468 135.391C138.724 134.079 140.276 133.416 142.139 133.416C144.001 133.416 145.567 134.079 146.851 135.391C148.135 136.704 148.784 138.594 148.784 141.035C148.784 142.672 148.474 144.069 147.853 145.212C147.232 146.355 146.4 147.216 145.37 147.794C144.326 148.373 143.225 148.655 142.054 148.655C140.192 148.655 138.654 147.992 137.44 146.679C136.213 145.367 135.606 143.491 135.606 141.035C135.592 138.594 136.213 136.704 137.468 135.391Z" stroke="black" stroke-miterlimit="10"/>
<path d="M161.272 145.903C161.272 149.699 162.683 152.112 165.462 153.198C165.604 153.255 165.731 153.325 165.872 153.382C166.902 153.72 168.101 153.89 169.484 153.89H170.655H173.576V149.685V148.415H172.263H170.556C169.568 148.415 168.863 148.217 168.44 147.836C168.369 147.78 168.327 147.695 168.27 147.625C167.974 147.23 167.819 146.679 167.819 145.946V140.034V135.829V133.515H172.066H173.59V132.837V128.181H167.819V125.656V121.818H161.272V122.989V128.181H158.21V133.515H161.272V140.584V145.551V145.903Z" stroke="black" stroke-miterlimit="10"/>
<path d="M178.26 131.116V134.771V144.648V147.611V150.616V153.89H184.765V151.872V145.127V141.487V138.608V129.86V129.225V128.167H179.516H178.26V131.116Z" stroke="black" stroke-miterlimit="10"/>
<path d="M185.555 121.296C185.555 120.209 185.174 119.306 184.412 118.572C183.65 117.839 182.705 117.486 181.562 117.486C180.419 117.486 179.46 117.853 178.712 118.572C177.95 119.306 177.569 120.209 177.569 121.296C177.569 122.029 177.752 122.678 178.105 123.257C178.274 123.525 178.458 123.779 178.698 124.005C179.46 124.738 180.405 125.091 181.548 125.091C182.479 125.091 183.269 124.837 183.932 124.372C184.088 124.259 184.257 124.146 184.398 124.005C185.174 123.285 185.555 122.382 185.555 121.296Z" stroke="black" stroke-miterlimit="10"/>
<path d="M201.175 153.156C202.614 153.932 204.279 154.313 206.17 154.313C208.371 154.313 210.36 153.748 212.138 152.634C213.916 151.519 215.327 149.953 216.357 147.921C217.387 145.889 217.909 143.561 217.909 140.937C217.909 138.312 217.387 135.984 216.357 133.995C215.313 131.991 213.916 130.453 212.138 129.381C210.36 128.294 208.371 127.758 206.17 127.758C205.803 127.758 205.45 127.786 205.097 127.814C203.644 127.941 202.318 128.308 201.118 128.943C199.651 129.733 198.494 130.721 197.661 131.892V131.003V128.181H191.157V136.972V141.43V153.678V159.068V166.151H197.661V162.99V156.81V150.221C198.579 151.406 199.736 152.38 201.175 153.156ZM207.821 134.347C208.865 134.94 209.697 135.801 210.332 136.929C210.967 138.058 211.278 139.399 211.278 140.951C211.278 142.531 210.953 143.886 210.332 145.043C209.697 146.186 208.865 147.074 207.821 147.695C206.776 148.316 205.662 148.627 204.448 148.627C203.277 148.627 202.162 148.33 201.132 147.724C200.088 147.117 199.256 146.242 198.621 145.099C197.986 143.956 197.676 142.602 197.676 141.064C197.676 139.512 197.986 138.171 198.621 137.028C199.256 135.885 200.088 135.01 201.132 134.404C202.162 133.797 203.277 133.501 204.448 133.501C205.662 133.458 206.776 133.755 207.821 134.347Z" stroke="black" stroke-miterlimit="10"/>
</svg>
